<?xml version="1.0" standalone="no"?><!DOCTYPE svg PUBLIC "-//W3C//DTD SVG 1.1//EN" "http://www.w3.org/Graphics/SVG/1.1/DTD/svg11.dtd"><svg t="1545022741388" class="icon" style="" viewBox="0 0 1024 1024" version="1.1" xmlns="http://www.w3.org/2000/svg" p-id="6484" xmlns:xlink="http://www.w3.org/1999/xlink" width="200" height="200"><defs><style type="text/css"></style></defs><path d="M964.996414 842.187034 964.890483 842.187034C964.890483 842.328276 964.996414 842.540138 964.996414 842.752 964.996414 931.133793 761.644138 1002.778483 510.834759 1002.778483 259.954759 1002.778483 56.602483 931.133793 56.602483 842.752 56.602483 842.540138 56.673103 842.328276 56.673103 842.187034L56.602483 842.187034 56.602483 691.976828C56.602483 780.393931 259.954759 852.038621 510.834759 852.038621 761.679448 852.038621 964.996414 780.393931 964.996414 691.976828L964.996414 842.187034 964.996414 842.187034ZM964.996414 618.001655 964.890483 618.001655C964.890483 618.178207 964.996414 618.390069 964.996414 618.601931 964.996414 706.983724 761.644138 778.628414 510.834759 778.628414 259.954759 778.628414 56.602483 706.983724 56.602483 618.601931 56.602483 618.390069 56.673103 618.178207 56.673103 618.001655L56.602483 618.001655 56.602483 467.826759C56.602483 556.243862 259.954759 627.888552 510.834759 627.888552 761.679448 627.888552 964.996414 556.243862 964.996414 467.826759L964.996414 618.001655 964.996414 618.001655ZM964.996414 393.851586 964.890483 393.851586C964.890483 393.992828 964.996414 394.20469 964.996414 394.416552 964.996414 482.798345 761.644138 554.443034 510.834759 554.443034 259.954759 554.443034 56.602483 482.798345 56.602483 394.416552 56.602483 394.20469 56.673103 393.992828 56.673103 393.851586L56.602483 393.851586 56.602483 243.641379C56.602483 332.058483 259.954759 403.703172 510.834759 403.703172 761.679448 403.703172 964.996414 332.058483 964.996414 243.641379L964.996414 393.851586 964.996414 393.851586ZM510.834759 334.918621C259.954759 334.918621 56.602483 263.238621 56.602483 174.821517 56.602483 86.439724 259.954759 14.795034 510.834759 14.795034 761.679448 14.795034 964.996414 86.439724 964.996414 174.821517 964.996414 263.238621 761.644138 334.918621 510.834759 334.918621L510.834759 334.918621Z" p-id="6485"></path></svg>