<?xml version="1.0" standalone="no"?><!DOCTYPE svg PUBLIC "-//W3C//DTD SVG 1.1//EN" "http://www.w3.org/Graphics/SVG/1.1/DTD/svg11.dtd"><svg t="1541660258202" class="icon" style="" viewBox="0 0 1024 1024" version="1.1" xmlns="http://www.w3.org/2000/svg" p-id="9812" xmlns:xlink="http://www.w3.org/1999/xlink" width="200" height="200"><defs><style type="text/css"></style></defs><path d="M696.980645 399.690323H327.019355v-99.096775c0-99.096774 82.580645-181.677419 184.980645-181.677419 102.4 0 184.980645 82.580645 184.980645 181.677419v99.096775z m-142.03871 350.141935v102.4c0 6.606452-3.303226 9.909677-9.909677 9.909677h-62.76129c-6.606452 0-9.909677-3.303226-9.909678-9.909677v-102.4c-29.729032-16.516129-49.548387-46.245161-49.548387-79.277419 0-49.548387 42.941935-89.187097 92.490323-89.187097 49.548387 0 92.490323 39.63871 92.490322 89.187097-3.303226 36.335484-23.122581 66.064516-52.851613 79.277419z m343.535484-350.141935h-85.883871V293.987097C812.593548 132.129032 677.16129 0 512 0S211.406452 132.129032 211.406452 293.987097V396.387097H125.522581c-39.63871 0-72.670968 33.032258-72.670968 72.670968v478.967741c0 39.63871 33.032258 72.670968 72.670968 72.670968h772.954838c39.63871 0 72.670968-33.032258 72.670968-72.670968V472.36129c0-42.941935-33.032258-72.670968-72.670968-72.670967z" p-id="9813"></path></svg>